<?xml version="1.0" encoding="utf-8"?>
<svg version="1.1" id="Capa_1" xmlns="http://www.w3.org/2000/svg" xmlns:xlink="http://www.w3.org/1999/xlink" x="0px" y="0px"
	 viewBox="0 0 550 550" style="enable-background:new 0 0 550 550;" xml:space="preserve">
    <style type="text/css">
        .lense{fill:rgb(17,171,171);}
    </style>
    
    <path fill="#FFDFB8" id="face" d="m414.00002,140.99998c-0.2,0 -0.3,-0.1 -0.5,-0.1c-0.1,0 -0.3,-0.1 -0.4,-0.1l-3.7,-0.7l-0.7,-3.7c-6.7,-34.5 -22.1,-63.8 -44.8,-84.7c-22.6,-20.8 -50.7,-31.7 -81.4,-31.7c-30.7,0 -58.8,11 -81.4,31.7c-22.6,20.8 -38.1,50.1 -44.9,84.7l-0.7,3.5l-3.6,0.9c-0.3,0.1 -0.9,0.2 -1.6,0.3c-18.8,5.1 -28.5,29 -22.1,54.6c4.8,18 16.2,32 29.8,36.7l2.7,0.9l0.8,2.8c9.3,30.7 25.4,59 45.2,79.9c22.5,23.7 48.7,36.2 75.7,36.2c27,0 53.2,-12.5 75.7,-36.2c19.9,-20.8 35.9,-49.2 45.2,-79.9l0.8,-2.8l2.7,-0.9c13.6,-4.7 25.2,-19.1 29.6,-36.5c6.6,-25.9 -3.3,-50 -22.4,-54.9z"/>
  
    <path id="t-shirt" d="m402.9,316.2c-12.8,21.6 -27.4,39.8 -46.8,49.9c-40.2,20.6 -74,37.2 -74,37.2l-74.4,-36.3c-19.7,-10.1 -43.6,-28.8 -58,-50.8c-60.5,23.6 -95.5,79 -95.5,128.1l0,100.6l449.7,0c0,0 0,-49.4 0,-100.6c-0.2,-48.4 -41.6,-104 -101,-128.1z"/>
  
    <g id="glasses">
        <path id="frames" d="m402.1,139.8c-0.1,-0.8 -0.4,-1.3 -1.2,-1.4c-0.5,-0.1 -1,-0.3 -1.6,-0.4c-7.6,-1.2 -15.2,-2.4 -22.8,-2.9c-6.1,-0.4 -12.2,-0.7 -18.4,-1c-11.8,-0.5 -23.6,-0.3 -35.3,1.2c-7.2,0.9 -14.3,2.2 -21.2,4.4c-3.5,1.1 -6.9,2.4 -10.4,3.5c-5.4,1.7 -11,2.5 -16.7,1.4c-3.4,-0.6 -6.8,-1.6 -10,-2.7c-6,-1.9 -11.9,-3.8 -18.1,-5c-12,-2.2 -24.1,-3.2 -35.4,-3.1c-9.2,0 -17.5,0.3 -25.7,1.3c-6.8,0.8 -13.5,1.7 -20.2,2.6c-1.4,0.2 -2.8,0.6 -4.2,1c-0.8,0.2 -1.2,0.7 -1.3,1.5c-0.1,4 -0.3,8 -0.4,12c0,0.6 0.1,1.2 0.2,1.8c0.1,0.5 0.4,0.9 0.8,1.1c0.5,0.2 1,0.5 1.5,0.8c2.2,1.5 3.3,3.9 4.1,6.3c0.6,1.7 1,3.5 1.5,5.3c0.3,1.1 0.7,2.2 1,3.3c1.2,5.2 2.3,10.4 3.5,15.6c1.1,5 2.6,9.8 5,14.3c2.6,5.1 6.4,8.9 11.8,11.2c3.2,1.4 6.6,2.2 10.1,2.8c6.2,1 12.4,1.1 18.7,0.6c6.3,-0.5 12.6,-1.4 18.7,-3.3c4.5,-1.4 8.8,-3.3 12.4,-6.4c5.5,-4.7 10,-10.3 13.4,-16.8c3.4,-6.4 5.8,-13.2 8,-20.2c0.6,-2 1.2,-4 1.9,-5.9c1.1,-2.9 3.1,-4.7 6.2,-5.1c1,-0.2 2,-0.2 3,-0.1c2.3,0.1 4.5,0.6 6,2.5c0.7,0.8 1.3,1.8 1.7,2.7c0.8,1.9 1.6,3.8 2.3,5.8c2.7,8.6 6.3,16.7 10.8,24.5c3.8,6.4 8.7,11.6 15.3,15.2c4.6,2.5 9.6,4.2 14.8,5.2c7.8,1.5 15.7,1.9 23.6,1.5c4.8,-0.2 9.5,-0.8 14.1,-2.2c4.7,-1.4 8.9,-3.7 12,-7.7c2,-2.5 3.5,-5.4 4.7,-8.4c2.6,-6.3 4.2,-12.8 5.7,-19.4c0.7,-3.2 1.5,-6.5 2.3,-9.7c0.4,-1.7 0.9,-3.3 1.4,-5c0.4,-1.6 0.8,-3.1 1.8,-4.5c1,-1.4 2,-2.7 3.7,-3.3c0.7,-0.3 1.1,-0.8 1.2,-1.4c0.1,-0.5 0.2,-1.1 0.2,-1.6c0,-2.4 0,-4.8 -0.1,-7.1c-0.1,-1.4 -0.3,-3.1 -0.4,-4.8m-142.6,32.8c-1.6,7 -4.3,13.5 -7.9,19.6c-2,3.4 -4.2,6.5 -7,9.2c-3.7,3.6 -8.2,5.7 -13.2,7c-10,2.6 -20.1,3.3 -30.4,1.7c-2,-0.3 -4,-0.8 -6,-1.3c-4.1,-1 -7.1,-3.4 -9.5,-6.9c-2.6,-3.9 -4.2,-8.1 -5.3,-12.6c-1.4,-5.9 -2.2,-11.8 -2.8,-17.8c-0.3,-3.5 -0.3,-6.9 0.1,-10.4c0.2,-1.7 0.4,-3.5 0.7,-5.2c1.4,-6 5.1,-9.9 11.1,-11.5c5.5,-1.4 11.1,-2.3 16.7,-2.7c4.2,-0.3 8.4,-0.5 11.1,-0.7c9.6,0.1 17.7,0.7 25.7,2.6c3.3,0.7 6.5,1.4 9.5,3c1.5,0.8 2.9,1.7 4.2,2.8c2.1,1.7 3.2,4.1 3.6,6.8c1.2,5.5 0.6,11 -0.6,16.4m124.7,-2.6c-0.2,8.4 -1.6,16.6 -4.6,24.5c-1.2,3.2 -2.9,6.1 -5.3,8.5c-2.8,2.7 -6.2,4.1 -9.8,5.1c-4.6,1.2 -9.3,1.5 -14,1.6c-7.1,0.1 -14.1,-0.8 -21.1,-2.3c-6.9,-1.5 -12.4,-5.1 -16.8,-10.5c-5.6,-7 -9.2,-15 -11.2,-23.7c-0.9,-4 -1.7,-8.1 -1.6,-12.2c0,-1.8 0.2,-3.6 0.6,-5.4c0.8,-4.4 3.5,-7.3 7.6,-8.9c4.1,-1.6 8.3,-2.7 12.6,-3.5c4.8,-1 9.6,-1.7 14.5,-2c3.8,-0.2 7.6,-0.4 10.2,-0.5c10.2,0.5 19.1,1.2 27.8,3.7c1.6,0.5 3.1,1.2 4.6,1.9c1.4,0.7 2.5,1.8 3.2,3.2c0.8,1.6 1.6,3.1 2.2,4.8c0.7,1.9 0.9,4 1,6c0,3.2 0.1,6.5 0.1,9.7"/>
   
        <path id="lense-right" class="lense" d="m383.1,154.3c-0.6,-1.6 -1.4,-3.2 -2.2,-4.8c-0.7,-1.4 -1.8,-2.5 -3.2,-3.2c-1.5,-0.7 -3,-1.4 -4.6,-1.9c-8.7,-2.5 -17.6,-3.2 -27.8,-3.7c-2.6,0.1 -6.4,0.2 -10.2,0.5c-4.9,0.3 -9.7,1 -14.5,2c-4.3,0.9 -8.6,1.9 -12.6,3.5c-4.1,1.6 -6.8,4.5 -7.6,8.9c-0.3,1.8 -0.5,3.6 -0.6,5.4c-0.1,4.2 0.7,8.2 1.6,12.2c2,8.7 5.6,16.7 11.2,23.7c4.4,5.5 9.9,9.1 16.8,10.5c7,1.5 14,2.4 21.1,2.3c4.7,0 9.4,-0.3 14,-1.6c3.6,-1 7.1,-2.4 9.8,-5.1c2.5,-2.4 4.1,-5.3 5.3,-8.5c3,-7.9 4.4,-16.1 4.6,-24.5c0.1,-3.2 -0.1,-6.4 -0.2,-9.7c0,-2 -0.1,-4.1 -0.9,-6z" fill="rgb(17,171,171)"/>
   
        <path id="lense-left" class="lense" d="m256.8,149.4c-1.3,-1.1 -2.7,-2 -4.2,-2.8c-3,-1.6 -6.3,-2.3 -9.5,-3c-8,-1.8 -16.1,-2.4 -25.7,-2.6c-2.7,0.2 -6.9,0.3 -11.1,0.7c-5.6,0.5 -11.2,1.3 -16.7,2.7c-6,1.6 -9.7,5.4 -11.1,11.5c-0.4,1.7 -0.5,3.5 -0.7,5.2c-0.4,3.5 -0.5,6.9 -0.1,10.4c0.6,6 1.4,11.9 2.8,17.8c1.1,4.5 2.7,8.7 5.3,12.6c2.3,3.5 5.4,5.9 9.5,6.9c2,0.5 4,1 6,1.3c10.2,1.5 20.4,0.9 30.4,-1.7c4.9,-1.3 9.4,-3.4 13.2,-7c2.8,-2.7 5.1,-5.9 7,-9.2c3.6,-6.2 6.3,-12.7 7.9,-19.6c1.3,-5.4 1.8,-10.9 0.9,-16.4c-0.7,-2.7 -1.8,-5.1 -3.9,-6.8z" fill="rgb(17,171,171)"/>
    </g>

    <path fill="rgb(0,0,0)" id="head" d="m415.26514,140.72847c-0.20192,0 -0.30288,-0.1006 -0.5048,-0.1006c-0.10096,0 -0.30288,-0.1006 -0.40384,-0.1006l-3.73555,-0.70421l-0.70673,-3.72228c-6.76438,-34.7077 -22.31236,-64.1841 -45.23048,-85.20993c-22.81716,-20.92522 -51.18718,-31.89085 -82.18217,-31.89085c-30.995,0 -59.36501,11.06622 -82.18217,31.89085c-22.81716,20.92522 -38.4661,50.40162 -45.33144,85.20993l-0.70673,3.52107l-3.63459,0.90542c-0.30288,0.1006 -0.90865,0.2012 -1.61537,0.30181c-18.98065,5.1307 -28.77386,29.17459 -22.31236,54.92872c4.84612,18.10837 16.35567,32.19265 30.08635,36.92095l2.72594,0.90542l0.80769,2.81686c9.38936,30.88483 25.64407,59.35521 45.63433,80.38103c22.7162,23.84268 49.16796,36.41794 76.4274,36.41794c27.25944,0 53.7112,-12.57526 76.4274,-36.41794c20.09122,-20.92522 36.24496,-49.4962 45.63433,-80.38103l0.80769,-2.81686l2.72594,-0.90542c13.73068,-4.7283 25.44215,-19.21499 29.88443,-36.71975c6.66342,-26.05593 -3.33171,-50.30102 -22.61524,-55.23052zm8.17783,53.21848c-4.03844,15.99572 -14.53837,25.55292 -22.91812,26.65954l-6.9663,0.90542l-1.8173,6.74034c-15.14413,55.23052 -57.34579,111.26586 -108.83585,111.26586s-93.79267,-56.03534 -108.93681,-111.26586l-1.8173,-6.74034l-6.9663,-0.90542c-8.27879,-1.20722 -18.87969,-10.56321 -22.91812,-26.65954c-4.6442,-16.90114 0.70673,-33.90289 11.20666,-36.51854c0.60577,-0.2012 1.41345,-0.2012 2.3221,-0.2012c0.60577,0 1.21153,0 1.8173,0.1006l9.99513,0.80482l1.51441,-9.859c9.99513,-67.10156 55.62946,-112.27188 113.58101,-112.27188c57.95156,0 103.48492,45.17032 113.58101,112.27188l1.51441,9.859l9.99513,-0.80482c1.51441,-0.1006 3.02883,-0.1006 4.03844,0.2012c10.39897,2.61565 15.85086,19.6174 11.6105,36.41794z"/>
</svg>
